<svg xmlns="http://www.w3.org/2000/svg" enable-background="new 0 0 2000 2000" viewBox="0 0 2000 2000"><path fill="#eaeff8" fill-rule="evenodd" d="M998.3,1491c180.4,0,346.4,2.7,478.2,7.2c322.4-184.3,210.8-543.5,95-746.7
			C1410.4,468.7,1029.7,367,872.2,592.7c-213.7,306.3-419.9,199.4-531.3,432c-111.3,232.6,57.7,455.6,179.2,473.5
			C651.9,1493.6,817.9,1491,998.3,1491L998.3,1491z M715.8,706.7c-82.5,62.8-219,111.5-264.4,44.7c-33.9-49.9,7.9-143.5,89.6-214.5
			c81.6-70.9,191-113.8,250.6-61.6C862.4,537.3,779.4,658.4,715.8,706.7z" clip-rule="evenodd"/><path fill="#d2dfee" fill-rule="evenodd" d="M998.3,1490.9c428.3,0,775.6,15.2,775.6,34c0,18.8-347.2,34-775.6,34c-428.3,0-775.6-15.2-775.6-34
			C222.8,1506.2,570,1490.9,998.3,1490.9z" clip-rule="evenodd"/><path fill="#fff" fill-rule="evenodd" d="M1248.4,553.3c193.7,43.2,317,221.3,329,307.3c5,35.3-4.2-47.3-103-122.5c-88.3-67.2-157.1-79.7-262.1-87.8
			c-74.2-5.7-152-14.9-146.5-59.1C1070.2,556.2,1123.4,525.5,1248.4,553.3L1248.4,553.3z M741.9,481.3c33.4,2,53.6,29.4,55,61
			c0.6,13.4-10-21.7-46.9-26.6c-22.9-3-26.4,3.7-34.6-5.7C707.2,500.4,715.1,479.6,741.9,481.3z" clip-rule="evenodd"/><path fill="#d2dfee" fill-rule="evenodd" d="M498.7,1412.7c-8.8-11.1-21.3-20.2-24.9-33.9c-4.3-16.2,5.2-33.2,2.8-49.7c-3-20.8-23-34.4-33.9-52.4
			c-10.7-17.6-5.7-23.6-6.6-44.2c-1.5-31-26.9-70.2-60.8-59.7c-34.4,10.7-28.8,42.7-22.7,66.8c4.3,17.1,1.5,19.6-2.7,36.8
			c-5.1,20.7-21.4,40.8-14.6,61c4.2,12.5,16.5,21,20.9,33.4c5,14.1-1.1,29.4-3.4,44.2c-4.9,31.1,2.1,57,24.8,82.7
			c2.4,2.3,5,4.5,7.6,6.4c31.7-1.8,67.3-3.4,106.4-4.9l0.3-0.3C512.4,1476.3,518.6,1437.5,498.7,1412.7z" clip-rule="evenodd"/><path fill="#fff" fill-rule="evenodd" d="M390.9,1200.8c-0.5-1.4-2.1-2.1-3.5-1.6c-1.4,0.5-2.1,2.1-1.6,3.5c2.7,7,4.9,14.4,6.9,22.1
			c-0.8-0.7-1.6-1.4-2.4-2.1c-3.7-3-7.9-5.6-12.6-7.8c-1.4-0.6-3-0.1-3.6,1.3c-0.6,1.4-0.1,3,1.3,3.6c4.3,2,8.1,4.4,11.5,7.1
			c3.2,2.6,5.9,5.4,8.3,8.6c3.5,16.6,5.8,34.5,7.8,53.3c-3.1-4.9-6.5-9.3-10.1-13.2c-6.2-6.8-13.1-12-20.6-15.7
			c-1.3-0.7-3-0.1-3.6,1.2c-0.7,1.3-0.1,3,1.2,3.6c6.9,3.4,13.3,8.3,19,14.6c5.7,6.2,10.9,13.9,15.5,22.9l0.5,5.1
			c1.2,11.2,2.3,22.7,3.7,34.5c0,0.1,0,0.2,0,0.3c1.5,12.3,3.2,24.8,5.3,37.6c-5.9-9.1-12.2-17.1-19-24.1
			c-9.9-10.2-20.8-18.2-32.7-23.9c-1.4-0.6-3-0.1-3.6,1.3c-0.6,1.4-0.1,3,1.3,3.6c11.3,5.4,21.6,13,31.1,22.8
			c9.5,9.7,18,21.6,25.7,35.6c3.3,16.9,7.6,34.1,13.3,51.5l0,0l0,0.1v0c2.8,8.5,5.9,17.1,9.4,25.7c-8.2-7.1-17-13.2-26.2-18.3
			c-12.9-7.2-26.7-12.5-41.5-15.9c-1.5-0.3-2.9,0.6-3.3,2c-0.3,1.5,0.6,2.9,2,3.3c14.3,3.3,27.7,8.4,40.1,15.3
			c12.3,6.8,23.6,15.4,34.1,25.8c2.4,5.4,5,10.7,7.7,16.1l6-0.3c-9.6-18.5-17.2-37-23.1-55.2c-1-13.3,0.6-26.5,4.7-39.8
			c4.2-13.4,11.1-26.9,20.7-40.4c0.9-1.2,0.6-2.9-0.6-3.8c-1.2-0.9-2.9-0.6-3.8,0.6c-9.9,13.9-17,27.9-21.4,41.9
			c-2.5,7.9-4.1,15.9-4.8,23.8c-8.2-29.5-12.7-58.3-16-85.8c3.2-11.7,6.8-21.5,10.7-29.6c3.9-8,8.2-14.2,12.8-18.6
			c1.1-1,1.1-2.7,0.1-3.8c-1-1.1-2.8-1.1-3.8-0.1c-5.1,4.8-9.7,11.5-13.9,20.1c-2.6,5.4-5.1,11.5-7.4,18.3
			c-0.8-7.3-1.5-14.4-2.3-21.5l-0.6-5.5c0-0.1,0-0.2,0-0.3C405.8,1263.7,401.9,1229.7,390.9,1200.8z" clip-rule="evenodd"/><path fill="#c5def8" fill-rule="evenodd" d="M407.7,1427.3c-9.4-5.1-20.8-7.8-27.4-16.2c-7.8-10-6.2-24.6-12.8-35.5c-8.2-13.6-26.2-17.1-39.1-26.4
			c-12.7-9.1-10.9-14.7-17.7-28.8c-10.2-21.2-39.5-40.9-60-23.6c-20.8,17.6-7.4,38.3,3.9,53.2c8.1,10.7,6.9,13.2,9,26.4
			c2.6,16-2.8,34.8,7.9,46.8c6.7,7.5,17.7,9.7,24.5,17.1c7.7,8.3,8,20.8,10.7,31.8c3.6,14.6,10,26.3,20.1,35.8c27.1-2.1,59-4,95-5.7
			c2.8-3.9,5-8.2,6.6-12.8C436.1,1467.5,428.9,1438.7,407.7,1427.3z" clip-rule="evenodd"/><path fill="#fff" fill-rule="evenodd" d="M269.8,1311.7c-0.8-0.8-2.1-0.8-2.9-0.1c-0.8,0.8-0.8,2.1-0.1,2.9c4,4.1,7.7,8.6,11.3,13.3
			c-0.8-0.3-1.5-0.5-2.3-0.7c-3.5-1-7.1-1.5-11.1-1.7c-1.1,0-2.1,0.8-2.1,2c0,1.1,0.8,2.1,2,2.1c3.6,0.1,7,0.7,10.1,1.5
			c3,0.8,5.7,2,8.3,3.5c7.3,10.5,14.2,22.3,21.2,34.8c-3.6-2.5-7.3-4.5-10.9-6.2c-6.3-2.9-12.7-4.5-19-4.9c-1.1-0.1-2.1,0.8-2.2,1.9
			c-0.1,1.1,0.8,2.1,1.9,2.2c5.8,0.3,11.7,1.8,17.6,4.5c5.9,2.6,11.7,6.4,17.6,11.4l1.9,3.4c4.1,7.5,8.4,15.1,12.8,22.9
			c0,0.1,0.1,0.2,0.1,0.2c4.7,8.1,9.6,16.3,14.9,24.6c-6.8-4.6-13.6-8.3-20.3-11.1c-9.9-4.2-19.9-6.5-29.8-7c-1.1-0.1-2.1,0.8-2.1,2
			c-0.1,1.1,0.8,2.1,2,2.2c9.5,0.4,18.9,2.7,28.4,6.6c9.5,4,19,9.7,28.5,17.2c7.3,10.8,15.4,21.5,24.5,31.9l0,0l0,0l0,0
			c4.5,5.1,9.2,10.2,14.2,15.1c-7.8-2.5-15.7-4.2-23.7-5c-11.1-1.2-22.3-0.8-33.6,1.2c-1.1,0.2-1.9,1.3-1.7,2.4
			c0.2,1.1,1.3,1.9,2.4,1.7c11-1.9,21.8-2.3,32.5-1.2c10.6,1.1,21,3.8,31.4,7.9c3.6,3.3,7.3,6.6,11.2,9.7l6.1-0.3
			c-13.5-10.8-25.2-22.2-35.5-34.1c-4.6-8.9-7.5-18.6-8.5-29.1c-1-10.6-0.2-22,2.4-34.3c0.2-1.1-0.5-2.2-1.6-2.4
			c-1.1-0.2-2.2,0.5-2.4,1.6c-2.8,12.6-3.6,24.5-2.5,35.5c0.6,6.3,1.8,12.3,3.7,18c-14.4-18.1-26.1-36.8-36.6-55
			c-1.2-9.1-1.7-17-1.3-23.8c0.4-6.8,1.5-12.3,3.4-16.7c0.5-1,0-2.3-1.1-2.7c-1-0.5-2.3,0-2.7,1.1c-2.1,4.9-3.4,10.9-3.7,18.1
			c-0.2,4.5-0.1,9.5,0.3,15c-2.7-4.8-5.3-9.6-7.9-14.3l-2-3.7c0-0.1-0.1-0.1-0.1-0.2C298.8,1351,286,1328.5,269.8,1311.7z" clip-rule="evenodd"/><path fill="#d2dfee" fill-rule="evenodd" d="M1463.7,1402.2c9.7-12.1,23.2-22.1,27.2-37c4.7-17.6-5.7-36.2-3.1-54.3c3.2-22.7,25.1-37.5,37-57.1
			c11.6-19.2,6.2-25.7,7.2-48.2c1.6-33.9,29.4-76.6,66.4-65.1c37.6,11.7,31.4,46.6,24.8,72.8c-4.7,18.7-1.6,21.4,2.9,40.1
			c5.5,22.6,23.4,44.5,15.9,66.6c-4.6,13.7-18,22.9-22.8,36.5c-5.5,15.4,1.2,32.1,3.7,48.2c5.4,34-2.3,62.2-27,90.3
			c-3,2.8-6.1,5.5-9.4,7.8c-34.1-1.7-72.2-3.3-113.6-4.7c-0.6-0.6-1.1-1.2-1.7-1.8C1448.7,1471.6,1442,1429.3,1463.7,1402.2z" clip-rule="evenodd"/><path fill="#fff" fill-rule="evenodd" d="M1581.4,1171c0.6-1.5,2.3-2.3,3.8-1.7c1.5,0.6,2.3,2.3,1.7,3.8c-2.9,7.7-5.4,15.7-7.5,24.1
			c0.9-0.8,1.7-1.5,2.6-2.2c4-3.2,8.6-6.1,13.7-8.5c1.5-0.7,3.2-0.1,3.9,1.4c0.7,1.5,0.1,3.2-1.4,3.9c-4.7,2.2-8.9,4.8-12.5,7.8
			c-3.5,2.8-6.5,5.9-9,9.4c-3.8,18.1-6.3,37.6-8.5,58.1c3.4-5.3,7.1-10.1,11-14.4c6.8-7.4,14.3-13.1,22.5-17.2
			c1.5-0.7,3.2-0.1,4,1.3c0.7,1.5,0.1,3.2-1.3,4c-7.5,3.7-14.5,9-20.8,15.9c-6.3,6.8-11.9,15.2-16.9,25l-0.6,5.6
			c-1.3,12.2-2.6,24.8-4.1,37.6c0,0.1,0,0.3,0,0.4c-1.6,13.4-3.5,27.1-5.8,41c6.4-9.9,13.3-18.7,20.7-26.3
			c10.8-11.1,22.7-19.8,35.6-26.1c1.5-0.7,3.3-0.1,4,1.4c0.7,1.5,0.1,3.3-1.4,4c-12.3,5.9-23.6,14.2-34,24.8
			c-10.3,10.6-19.7,23.6-28,38.9c-3.7,18.4-8.3,37.2-14.5,56.2l0,0l0,0.1l0,0c-3,9.3-6.4,18.7-10.3,28.1c9-7.7,18.5-14.4,28.6-20
			c14.1-7.8,29.2-13.6,45.3-17.3c1.6-0.4,3.2,0.6,3.6,2.2c0.4,1.6-0.6,3.2-2.2,3.6c-15.6,3.6-30.2,9.2-43.8,16.7
			c-13.4,7.5-25.8,16.9-37.2,28.2c-2.8,6.2-5.8,12.5-9.1,18.8l-6.6-0.3c10.8-20.6,19.2-41.2,25.9-61.5c1.1-14.5-0.6-29-5.1-43.4
			c-4.6-14.7-12.1-29.4-22.6-44.1c-0.9-1.3-0.6-3.2,0.7-4.1c1.3-0.9,3.2-0.6,4.1,0.7c10.8,15.2,18.6,30.5,23.4,45.7
			c2.7,8.7,4.5,17.3,5.3,26c8.9-32.2,13.8-63.6,17.4-93.6c-3.5-12.7-7.4-23.5-11.7-32.3c-4.3-8.8-8.9-15.5-13.9-20.3
			c-1.2-1.1-1.2-3-0.1-4.2c1.1-1.2,3-1.2,4.2-0.1c5.6,5.3,10.6,12.6,15.2,22c2.9,5.8,5.5,12.5,8,20c0.9-7.9,1.7-15.7,2.5-23.4l0.6-6
			c0-0.1,0-0.2,0-0.3C1565.1,1239.6,1569.4,1202.5,1581.4,1171z" clip-rule="evenodd"/><path fill="#c5def8" fill-rule="evenodd" d="M1563.1,1418.1c10.3-5.6,22.7-8.5,29.9-17.7c8.5-10.9,6.8-26.9,13.9-38.7c9-14.9,28.6-18.7,42.7-28.8
			c13.8-10,11.9-16.1,19.3-31.4c11.1-23.1,43.2-44.7,65.5-25.7c22.7,19.2,8.1,41.8-4.3,58.1c-8.8,11.6-7.5,14.4-9.8,28.8
			c-2.9,17.4,3.1,37.9-8.7,51.1c-7.3,8.1-19.3,10.6-26.7,18.6c-8.4,9.1-8.7,22.7-11.7,34.7c-4,16.2-11.1,29.1-22.4,39.5
			c-29.6-2-64-3.9-102.4-5.6c-3.4-4.6-6.1-9.7-8-15.1C1532.1,1462,1539.9,1430.6,1563.1,1418.1z" clip-rule="evenodd"/><path fill="#fff" fill-rule="evenodd" d="M1713.6,1292c0.9-0.9,2.3-0.9,3.2-0.1c0.9,0.9,0.9,2.3,0.1,3.2c-4.3,4.5-8.4,9.3-12.4,14.5
			c0.8-0.3,1.7-0.5,2.5-0.8c3.8-1.1,7.8-1.7,12.1-1.8c1.2,0,2.3,0.9,2.3,2.2c0,1.2-0.9,2.3-2.2,2.3c-3.9,0.2-7.6,0.7-11,1.7
			c-3.2,0.9-6.3,2.2-9.1,3.8c-8,11.5-15.5,24.3-23.2,38c4-2.7,8-5,11.9-6.8c6.9-3.1,13.8-4.9,20.8-5.3c1.2-0.1,2.3,0.9,2.4,2.1
			c0.1,1.2-0.9,2.3-2.1,2.4c-6.4,0.4-12.8,2-19.2,4.9c-6.4,2.9-12.8,7-19.2,12.4l-2.1,3.7c-4.5,8.2-9.1,16.5-14,25
			c0,0.1-0.1,0.2-0.1,0.2c-5.1,8.9-10.4,17.8-16.2,26.8c7.4-5,14.8-9,22.2-12.2c10.8-4.6,21.7-7.1,32.5-7.6c1.2-0.1,2.3,0.9,2.3,2.1
			c0.1,1.2-0.9,2.3-2.1,2.3c-10.3,0.5-20.7,2.9-31,7.3c-10.3,4.3-20.7,10.6-31.1,18.8c-8,11.8-16.8,23.5-26.7,34.9l0,0l0,0l0,0
			c-4.9,5.6-10,11.1-15.5,16.5c8.5-2.7,17.2-4.5,25.9-5.4c12.1-1.3,24.3-0.8,36.7,1.3c1.2,0.2,2,1.4,1.8,2.6c-0.2,1.2-1.4,2-2.6,1.8
			c-12-2.1-23.8-2.5-35.4-1.3c-11.5,1.2-23,4.1-34.3,8.6c-4.2,3.9-8.7,7.8-13.3,11.6l-6.8-0.3c15.2-12,28.3-24.9,39.9-38.2
			c5.1-9.8,8.2-20.3,9.3-31.8c1.1-11.6,0.2-24.1-2.7-37.4c-0.3-1.2,0.5-2.4,1.7-2.7c1.2-0.3,2.4,0.5,2.7,1.7
			c3,13.8,3.9,26.7,2.7,38.8c-0.7,6.8-2,13.4-4,19.7c15.7-19.8,28.5-40.2,39.9-60c1.3-9.9,1.8-18.5,1.4-25.9
			c-0.4-7.4-1.6-13.4-3.7-18.2c-0.5-1.1,0-2.5,1.2-3c1.1-0.5,2.5,0,3,1.2c2.3,5.3,3.7,11.9,4.1,19.8c0.3,4.9,0.1,10.4-0.3,16.3
			c3-5.3,5.8-10.5,8.7-15.6l2.2-4c0-0.1,0.1-0.1,0.1-0.2C1681.9,1334.9,1695.8,1310.3,1713.6,1292z" clip-rule="evenodd"/><path fill="#fff" fill-rule="evenodd" d="M942,677.5c-2.8,38.1-8.4,43.4-44.7,46.3c36.3,2.9,41.9,8.2,44.7,46.3c2.8-38.1,8.4-43.4,44.7-46.3
			C950.4,720.8,944.8,715.6,942,677.5L942,677.5z M1089.7,777.9c-1.5,20.3-4.5,23.1-23.9,24.7c19.4,1.6,22.4,4.4,23.9,24.7
			c1.5-20.3,4.5-23.1,23.9-24.7C1094.2,801.1,1091.2,798.3,1089.7,777.9L1089.7,777.9z M1025,621.4c-1.5,20.6-4.5,23.4-24.2,25
			c19.6,1.6,22.7,4.4,24.2,25c1.5-20.6,4.5-23.4,24.2-25C1029.6,644.8,1026.5,642,1025,621.4z" clip-rule="evenodd"/><path fill="#fff" fill-rule="evenodd" d="M888.5,1302.1c2.2,30.9,6.8,35.1,36.2,37.5c-29.4,2.4-34,6.6-36.2,37.5c-2.2-30.9-6.8-35.1-36.2-37.5
			C881.7,1337.2,886.2,1333,888.5,1302.1L888.5,1302.1z M768.9,1383.5c1.2,16.5,3.6,18.8,19.3,20c-15.7,1.3-18.1,3.5-19.3,20
			c-1.2-16.5-3.6-18.8-19.3-20C765.2,1402.2,767.7,1400,768.9,1383.5L768.9,1383.5z M821.3,1256.7c1.2,16.7,3.7,19,19.6,20.3
			c-15.9,1.3-18.4,3.6-19.6,20.3c-1.2-16.7-3.7-19-19.6-20.3C817.6,1275.7,820,1273.4,821.3,1256.7z" clip-rule="evenodd"/><path fill="#fff" fill-rule="evenodd" d="M1358.6,1226c-1.7,23.6-5.2,26.9-27.7,28.7c22.5,1.8,26,5.1,27.7,28.7c1.7-23.6,5.2-26.9,27.7-28.7
			C1363.8,1252.9,1360.3,1249.6,1358.6,1226L1358.6,1226z M1450.2,1288.3c-0.9,12.6-2.8,14.4-14.8,15.3c12,1,13.9,2.7,14.8,15.3
			c0.9-12.6,2.8-14.4,14.8-15.3C1452.9,1302.7,1451.1,1300.9,1450.2,1288.3L1450.2,1288.3z M1410.1,1191.2
			c-0.9,12.8-2.8,14.5-15,15.5c12.2,1,14.1,2.7,15,15.5c0.9-12.8,2.8-14.5,15-15.5C1412.9,1205.8,1411,1204,1410.1,1191.2z" clip-rule="evenodd"/><path fill="#a4d0fc" fill-rule="evenodd" stroke="#61a0e0" stroke-miterlimit="2.613" stroke-width=".624" d="M895.7,830.9h506.9c19.3,0,35.1,15.8,35.1,35.1v626.3c0,19.3-15.8,35.1-35.1,35.1H895.7
			c-19.3,0-35.1-15.8-35.1-35.1V866C860.6,846.7,876.4,830.9,895.7,830.9z" clip-rule="evenodd"/><path fill="#a4d0fc" fill-rule="evenodd" d="M921.3,866h455.8c17.4,0,31.6,14.2,31.6,31.6v563.2c0,17.4-14.2,31.6-31.6,31.6H921.3
			c-17.4,0-31.6-14.2-31.6-31.6V897.6C889.7,880.3,903.9,866,921.3,866z" clip-rule="evenodd"/><path fill="#61a0e0" fill-rule="evenodd" stroke="#61a0e0" stroke-miterlimit="2.613" stroke-width=".621" d="M895.7,830.9h506.9c19.3,0,35.1,15.8,35.1,35.1v87.8H860.6V866C860.6,846.7,876.4,830.9,895.7,830.9z" clip-rule="evenodd"/><path fill="#71afed" fill-rule="evenodd" d="M944.3,973.4h409.9c15.6,0,28.4,12.8,28.4,28.4v430.6c0,15.6-12.8,28.4-28.4,28.4H944.3
			c-15.6,0-28.4-12.8-28.4-28.4v-430.6C915.9,986.2,928.7,973.4,944.3,973.4z" clip-rule="evenodd"/><path fill="#61a0e0" fill-rule="evenodd" stroke="#61a0e0" stroke-miterlimit="2.613" stroke-width="8.76" d="M860.6,1483.9h577.2c10,0,18.3,8.2,18.3,18.3v7c0,10-8.2,18.3-18.3,18.3H860.6c-10,0-18.3-8.2-18.3-18.3v-7
			C842.4,1492.1,850.6,1483.9,860.6,1483.9z" clip-rule="evenodd"/><path fill="#a4d0fc" fill-rule="evenodd" d="M1195.9,858.7c18.6,0,33.7,15.1,33.7,33.7c0,18.6-15.1,33.7-33.7,33.7c-18.6,0-33.7-15.1-33.7-33.7
			C1162.2,873.8,1177.3,858.7,1195.9,858.7L1195.9,858.7z M1102.5,858.7c18.6,0,33.7,15.1,33.7,33.7c0,18.6-15.1,33.7-33.7,33.7
			s-33.7-15.1-33.7-33.7C1068.8,873.8,1083.9,858.7,1102.5,858.7z" clip-rule="evenodd"/><circle cx="1149.2" cy="1236.1" r="147.5" fill="#a4d0fc" fill-rule="evenodd" clip-rule="evenodd" transform="rotate(-6.264 1149.4 1236.227)"/><path fill="#4f8ecc" fill-rule="evenodd" d="M1149.2,1358.2c67.3,0,122.2-54.9,122.2-122.2c0-67.3-54.9-122.2-122.2-122.2c-67.3,0-122.2,54.9-122.2,122.2
			C1027.1,1303.3,1081.9,1358.2,1149.2,1358.2z" clip-rule="evenodd"/><path fill="#a4d0fc" fill-rule="evenodd" d="M892.4,885h140.9c5.7,0,10.3,4.6,10.3,10.3v15.9c0,5.7-4.6,10.3-10.3,10.3H892.4c-5.7,0-10.3-4.6-10.3-10.3
			v-15.9C882.1,889.6,886.7,885,892.4,885z" clip-rule="evenodd"/><path fill="#a4d0fc" fill-rule="evenodd" d="M1261,885h140.9c5.7,0,10.3,4.6,10.3,10.3v15.9c0,5.7-4.6,10.3-10.3,10.3H1261c-5.7,0-10.3-4.6-10.3-10.3
			v-15.9C1250.7,889.6,1255.3,885,1261,885z" clip-rule="evenodd"/><path fill="#a4d0fc" fill-rule="evenodd" d="M1254.7,862.5h37c2.2,0,4,1.8,4,4v6.1c0,2.2-1.8,4-4,4h-37c-2.2,0-4-1.8-4-4v-6.1
			C1250.7,864.3,1252.5,862.5,1254.7,862.5z" clip-rule="evenodd"/><path fill="#a4d0fc" fill-rule="evenodd" d="M1312.2,862.5h37c2.2,0,4,1.8,4,4v6.1c0,2.2-1.8,4-4,4h-37c-2.2,0-4-1.8-4-4v-6.1
			C1308.3,864.3,1310.1,862.5,1312.2,862.5z" clip-rule="evenodd"/><path fill="#a4d0fc" fill-rule="evenodd" d="M1369.8,862.5h37c2.2,0,4,1.8,4,4v6.1c0,2.2-1.8,4-4,4h-37c-2.2,0-4-1.8-4-4v-6.1
			C1365.8,864.3,1367.6,862.5,1369.8,862.5z" clip-rule="evenodd"/><path fill="#a4d0fc" fill-rule="evenodd" d="M945,862.5h37c2.2,0,4,1.8,4,4v6.1c0,2.2-1.8,4-4,4h-37c-2.2,0-4-1.8-4-4v-6.1
			C941.1,864.3,942.8,862.5,945,862.5z" clip-rule="evenodd"/><path fill="#a4d0fc" fill-rule="evenodd" d="M1002.6,862.5h37c2.2,0,4,1.8,4,4v6.1c0,2.2-1.8,4-4,4h-37c-2.2,0-4-1.8-4-4v-6.1
			C998.6,864.3,1000.4,862.5,1002.6,862.5z" clip-rule="evenodd"/><g><path fill="#f57a44" fill-rule="evenodd" d="M1164.9,1042.3l124.7,67.3l83.1-144l54.1,93.7l-54.9,32.3l159.6-7.8l71-128l-53.7,31.6l-38.5-66.7
			c-12.2-21.4-26.7-25.9-49.2-25.4h-180.5c-27.6-0.1-33.8,5-45.7,25.3L1164.9,1042.3z" clip-rule="evenodd"/><path fill="#f57a44" fill-rule="evenodd" d="M1602.8,1080.7l-120.6,74.4l83.1,144h-108.2l-0.5-63.7l-73.1,142.1l75.4,125.5l-0.5-62.3h77
			c24.6,0.1,35.8-10.2,46.6-29.9l90.2-156.3c13.9-23.8,12.6-31.8,0.9-52.2L1602.8,1080.7z" clip-rule="evenodd"/><path fill="#f57a44" fill-rule="evenodd" d="M1350.6,1440.8l-4.1-141.7h-166.3l54.1-93.7l55.4,31.4l-86.5-134.3l-146.4,2.5l54.2,30.7l-38.5,66.7
			c-12.4,21.2-9.1,36.1,2.6,55.3l90.2,156.3c13.7,24,21.2,26.7,44.8,26.9H1350.6z" clip-rule="evenodd"/></g><g><path fill="#ed5d1f" fill-rule="evenodd" d="M1396.6,1176.1l23.2,2.4c-3,8-8.9,14.5-17.5,19.7c-8.7,5.2-19.6,7.7-32.7,7.8c-15.7,0-28.4-4.1-38-12.3
			c-9.6-8.2-14.4-19.3-14.4-33.3c0-13.3,4.8-24.3,14.5-33.1c9.7-8.7,22.8-13.1,39.3-13.1c16.2,0,28.7,4.3,37.6,12.9
			c8.8,8.6,13.3,19.7,13.3,33.2l-0.1,2.3h-77.9c0,6,0.7,10.8,2.2,14.4c1.5,3.6,4.4,6.7,8.7,9.4c4.4,2.7,9.8,4,16.3,4
			C1383.7,1190.4,1392.2,1185.6,1396.6,1176.1L1396.6,1176.1z M1395.1,1149.7c-0.1-6.3-2.5-11.5-7.4-15.6c-4.8-4-10.8-6-17.9-6
			c-7.1,0-12.9,1.9-17.6,5.6c-4.7,3.8-7.5,9.1-8.3,15.9H1395.1z" clip-rule="evenodd"/><path fill="#ed5d1f" fill-rule="evenodd" d="M1332.2,1218l-2.8,14.6c-0.7,4.1-1.4,8-1.9,12h-0.1c-0.4-4-1.1-7.8-1.9-11.8l-2.9-14.9h-6.5l-3.1,14.7
			c-0.9,4.3-1.7,8.2-2.2,12.1h-0.1c-0.5-3.7-1.2-7.9-1.9-12l-2.6-14.8h-7l7.5,34.2h6.9l3.3-14.5c0.8-3.6,1.5-7,2-10.9h0.1
			c0.4,3.9,1,7.3,1.7,10.9l2.9,14.5h7l8.1-34.2H1332.2L1332.2,1218z M1357.8,1218h-8.3l-9.7,34.2h6.7l2.4-9h9.2l2.4,9h6.9
			L1357.8,1218L1357.8,1218z M1349.8,1238.2l2-7.8c0.5-2,1.1-4.8,1.5-6.9h0.1c0.4,2.1,1,4.9,1.6,7l2,7.8H1349.8L1349.8,1238.2z
			 M1389.9,1219c-1.6-0.8-4.1-1.6-7.3-1.6c-7.4,0-11.8,4.3-11.8,9.9c0,4.5,3.2,7.7,8.4,9.9c3.8,1.6,5.4,3.1,5.4,5.6
			c0,2.5-1.9,4.3-5.6,4.3c-2.8,0-5.6-0.8-7.4-1.9l-1.3,5.5c1.6,1,5,1.9,8.4,1.9c8,0,12.5-4.4,12.5-10.3c0-4.5-2.4-7.7-7.9-10.1
			c-4.2-1.9-5.9-3-5.9-5.5c0-1.9,1.6-3.8,5-3.8c2.8,0,4.9,0.8,6.1,1.5L1389.9,1219L1389.9,1219z M1416.9,1218h-23.5v5.7h8.4v28.5
			h6.6v-28.5h8.5V1218L1416.9,1218z M1439.9,1246.7h-12.6v-9.5h11.2v-5.4h-11.2v-8.3h11.8v-5.5h-18.4v34.2h19.1V1246.7z" clip-rule="evenodd"/></g><g><path fill="#ffb27d" fill-rule="evenodd" d="M352.4,1482c0,0-6.9,6.9-7.1,9.4c-0.2,2.5-0.6,29.5,2.2,32c2.8,2.5,11.2,4.3,8.5,7.2
			c-2,2.1-17.6,1.7-27.9,1.1c-3-0.2-6.8-24.5-8-28.1c-1.7-5.2-8-16.5-6.4-20.1c0.8-1.8,6.5-5.8,11.6-9.2
			c5.4-3.6,10.6-11.5,10.6-11.5L352.4,1482z" clip-rule="evenodd"/><path fill="#ffb27d" fill-rule="evenodd" d="M445.3,1498.8l-6.2,17.9c-0.5,2.8-2.3,9.8-2.3,12.4c0,9.6,42.8-8.2,33.2-12.5c-0.9-0.4-3.6-3.5-3.9-6.8
			c-0.5-5,3.6-11.4,3.6-11.4L445.3,1498.8z" clip-rule="evenodd"/><path fill="#3b5bb3" fill-rule="evenodd" d="M504.4,1161.1l15.5,40.2c0,0,10.1,95.8,4.2,153.2c-2.5,24-55.8,152.4-55.8,152.4l-26.5-3.8l35.5-152.1
			l-13.1-58.2l-18.5-115L504.4,1161.1z" clip-rule="evenodd"/><path fill="#4567c6" fill-rule="evenodd" d="M431.4,1163.1l-13.3,44.7l-20.2,135l-68.4,126.3c0,0,10.3,15.8,21.3,18.3l97.1-127.6l52.6-159.8l-1.8-35.5
			L431.4,1163.1z" clip-rule="evenodd"/><path fill="#ffb27d" fill-rule="evenodd" d="M641,1160.3c-10.3-0.5-10,1.3-11.3,1.2c-1.6-0.1-18.3-13-18.3-13s-49.4-37.7-52-39.8l-30.8-56.8l-32.1,7.5
			c0,0,35.2,60.8,37.5,63.7c2.4,2.8,75,45.8,81.3,49.9c0,0,5.7,7.6,9.5,12.2c3.8,4.6,9.4,7.3,10.6,8.5c0.2,0.1,4.6,3.7,11.2,6.6
			c5.7,2.5,1.4-2.4,1.4-2.4s-9.7-6.6-9-7.2c0.5-0.5,5.6,3.4,11.8,6.2c1.6,0.7,3.2,1.4,4.6,2c3.8,1.7,6-0.2,2.2-2.6
			c-1.3-0.9-3.6-2.2-5.3-2.9c-1.9-0.8-3.3-2.2-4.8-3.1c-2.9-1.8-5-3.1-4.9-3.2c0.2-0.1-0.1-0.9,1.6-0.1c2.1,0.8,6.1,3.7,9.2,4.7
			c1.8,0.6,5.4,2,5.4,2s6.2,1.7,6.4,1.3c1-1.8-3.1-4.3-5.6-4.7c-1.5-1.2-5.3-2.6-5.3-2.6s-7.2-4.7-6.6-5.7c0.5-0.9,20,6.9,20.8,5
			c0.7-1.5-5-4.1-5-4.1s-3.6-1.3-4.8-1.8c-1.4-0.6-5.3-2.8-5.3-2.8s-13.3-8.2-12.7-9.1c0.7-1,3.4-2.6,4.4-2.4c1,0.2,2.6,1.6,3.6,1.8
			c1,0.2,2.5-0.4,2.9-1.6c0.3-1.3-4.1-4.2-4.1-4.2S643.9,1160.4,641,1160.3z" clip-rule="evenodd"/><path fill="#ed5d1f" fill-rule="evenodd" d="M540.8,1067.8l-33.1,18.7c0,0-14.2-28.1-20.2-41.8c-7.3-16.6-14.7-38.6-12.5-39c6.1-1.1,14.4-1.3,21.6,2.9
			C521.6,1023.3,540.8,1067.8,540.8,1067.8z" clip-rule="evenodd"/><path fill="#284191" fill-rule="evenodd" d="M325.7,1474.1c0,0,14.6,44.8,20.9,47c1.7,0.6,11,2.9,12.5,6.5l0.1,0.4c0.5,2.3-1.4,4.3-3.7,4.3h-29.7
			c0,0-4.2-20.1-5.9-29c0,0-8.8-21.6-7.8-23.6C313,1477.8,325.7,1474.1,325.7,1474.1z" clip-rule="evenodd"/><path fill="#284191" fill-rule="evenodd" d="M434.4,1532.2l4.9-15.7c0,0,10.3,4.4,15.4,3.7c5.2-0.7,15.2-3.7,15.2-3.7c20.6,6.9,37.4,10.2,34.3,15.7
			H434.4z" clip-rule="evenodd"/><path fill="#f57a44" fill-rule="evenodd" d="M436.2,999.1c0,0-20,2.8-25.3,6.7c-2.6,1.9-9.9,6.9-14.6,11.8c-6.2,6.5-9.6,12.8-9.6,12.8
			s38.2,109.4,36.7,128.8c-1.5,19.5-5.7,48.3-5.7,48.3s74.7,4.7,102.8-6.4c0,0-9.4-44.2-9.4-55.7c0-11.6-5-127.4-8.5-133.4
			c-3.6-6.1-10.7-9.5-24.2-12.5C464.8,996.7,436.2,999.1,436.2,999.1z" clip-rule="evenodd"/><path fill="#ffb27d" fill-rule="evenodd" d="M441.6,967.9l-4.9,32.4c0,0,18.1,38.6,28.9,35.3c9-2.8,3.5-36.9,3.5-36.9s-4.9-18.4-3.5-27.5
			C467.1,962,441.6,967.9,441.6,967.9z" clip-rule="evenodd"/><path fill="#f08261" fill-rule="evenodd" d="M465.6,971.1c1.5-9.1-23.9-3.2-23.9-3.2l-0.4,2.7c0.7,1.8,1.6,3.4,2.8,4.5c5.7,6.1,14.5,9.7,22.2,10
			C465.4,980.2,465,974.9,465.6,971.1z" clip-rule="evenodd"/><path fill="#ffb27d" fill-rule="evenodd" d="M437.5,922.1c-0.7-0.3-5.8,36.9,3.8,47.1c9.6,10.2,28.2,13.6,34.9,5.5c3.3-4,9.9-15.1,5.3-27.7
			c-4.7-12.8-4.9-25.8-13.1-31.6C453.4,904.9,437.5,922.1,437.5,922.1z" clip-rule="evenodd"/><path fill="#ffb27d" fill-rule="evenodd" d="M448.2,950.2c0.1,4.5-2,8.3-4.6,8.3c-2.6,0.1-4.8-3.6-4.9-8.1c-0.1-4.5,2-8.2,4.6-8.3
			C446,942,448.2,945.6,448.2,950.2z" clip-rule="evenodd"/><path fill="#284191" fill-rule="evenodd" d="M475.7,965.2c-24.5,8.9-40.1,9.7-47.1,2.6c-7-1.6-11.6-7.9-13.8-18.7c-7.3-16.5-1.1-42.9,9.2-29.8
			c8.5-21.7,42.4-9.1,61.6-21.1c11.6,7.6,7.2,26.4-1.2,32.7C484.8,952.4,483.6,964,475.7,965.2z" clip-rule="evenodd"/><path fill="#284191" fill-rule="evenodd" d="M418.5,921.6c2.6-2,3.5-4.3,2.6-6.7c-4.1-2.3-7.9-2.4-11.6-0.2C411.7,914.8,414.7,917.1,418.5,921.6z" clip-rule="evenodd"/><path fill="#284191" fill-rule="evenodd" d="M423.5,915.9c-1.9,2.1-3.6,2.6-5.2,1.4c-1-4-0.4-7.5,1.7-10.5C419.8,908.8,421,911.8,423.5,915.9z" clip-rule="evenodd"/><path fill="#284191" fill-rule="evenodd" d="M436.5,924.9c-4.6-1.8-8.1-1.2-10.5,1.8c0.2,6.9,3.8,20.8,9.3,23.8C436.2,949.9,436,935.3,436.5,924.9z" clip-rule="evenodd"/><path fill="#284191" fill-rule="evenodd" d="M438.2,918.2c-7.8,3.8-10.4,7.2-7.7,10.2c11.8,1.7,23,0.5,33.8-3.8C457.8,925.3,449.1,923.1,438.2,918.2z" clip-rule="evenodd"/><path fill="#284191" fill-rule="evenodd" d="M483.9,929.9c-8.8-8.9-25.5-10-48.4-1.6c-14.5-3.6-17.8-10.3-11.6-21.2c8.7-15.4,27.4-3.2,50.4-17.7
			C473.4,900.6,507.5,910.3,483.9,929.9z" clip-rule="evenodd"/><path fill="#ffb27d" fill-rule="evenodd" d="M428.8,937.5c6.1-1.3,5.5,11.2,5,17.4C432.9,967,419.2,939.5,428.8,937.5z" clip-rule="evenodd"/><path fill="#ffb27d" fill-rule="evenodd" d="M439.4,998.9c-1.4-3.6-0.7-19.4-1.1-24.6c-0.7-2-1.4-4.5-2.2-7.5c-13-8.8-14.8-15.3-5.3-19.6
			c1.9,1.1,4.3,4.4,7.1,9.9c2.3-0.1,4-1.2,5.1-3.5c-2.7-9.3-4.4-16.8-5.2-22.6c6.4-9.5,21.4-10.9,41.2-8.3
			c0.9,5.3,1.7,10.9,2.3,16.8c2.5,2.3,9.6,40.3-14.7,41.8c-0.2,2.8,0.1,6.2,0.3,6.6c0.3,0.6-3.2,7-1.8,7.5
			C463.7,992.1,463.8,1062.7,439.4,998.9z" clip-rule="evenodd"/><path fill="#284191" fill-rule="evenodd" d="M478.9,922.6c-19.8-2.6-34.8-1.2-41.2,8.3c0.8,5.8,2.6,13.3,5.2,22.6c-1.2,2.2-2.9,3.4-5.1,3.5
			c-2.8-5.5-5.2-8.8-7.1-9.9c-9.4,4.2-7.7,10.8,5.3,19.6c0.8,3,1.5,5.6,2.2,7.5c-11.7-2.6-21.5-13.1-22.8-17.6
			c-13.6-26.9,1.6-38.2,9.7-42.3c3.6-26.6,42.2-3.1,61.6-15.9C494.4,909.1,484.9,922.4,478.9,922.6z" clip-rule="evenodd"/><path fill="#f08261" fill-rule="evenodd" d="M453.4,978.5c3.2,1.6,7.5,2.5,13,2.7c-0.1,1.9,0,4,0.1,5.3C461,985.5,456.6,982.8,453.4,978.5z" clip-rule="evenodd"/><path fill="#284191" fill-rule="evenodd" d="M476.1,916.1c3,2.3,4,4.8,2.9,7.5c-4.6,2.6-8.9,2.7-13.1,0.3C468.4,923.7,471.8,921.1,476.1,916.1z" clip-rule="evenodd"/><path fill="#ed5d1f" fill-rule="evenodd" d="M434.1,999.5c5.8,12.5,11.6,22.3,16.6,28.5c5.3,6.6,10.3,9.7,14.9,9.4l0.2,0c4.1-0.7,6-5.8,6.8-12.2
			c1.1-9.5,0.5-21.8-0.3-26.4l-3.4-0.3c0.7,4.4,1.2,17.1,0.1,26.2c-0.6,4.8-1.7,8.6-3.8,9.1c-3.4,0.1-7.4-2.5-11.8-8.1
			c-4.8-6-10.9-14.8-16.6-27L434.1,999.5z" clip-rule="evenodd"/><path fill="#ed5d1f" fill-rule="evenodd" d="M463.7,1039.7c2.4,0,4.3-1.9,4.3-4.3c0-2.4-1.9-4.3-4.3-4.3c-2.4,0-4.3,1.9-4.3,4.3
			C459.4,1037.7,461.3,1039.7,463.7,1039.7z" clip-rule="evenodd"/><path fill="#ed5d1f" fill-rule="evenodd" d="M464.5,1045.5c1.6,0,2.9-1.3,2.9-2.9c0-1.6-1.3-2.9-2.9-2.9c-1.6,0-2.9,1.3-2.9,2.9
			C461.6,1044.2,462.9,1045.5,464.5,1045.5z" clip-rule="evenodd"/><path fill="#ed5d1f" fill-rule="evenodd" d="M465.1,1049.2c1,0,1.7-0.8,1.7-1.7c0-1-0.8-1.7-1.7-1.7c-1,0-1.7,0.8-1.7,1.7
			C463.4,1048.4,464.1,1049.2,465.1,1049.2z" clip-rule="evenodd"/><path fill="#125aa3" fill-rule="evenodd" d="M469.2,938c2.6-1.3,4.9-2.7,7.7-4c4-1.9,5.3,1.1,8.3,1.2c-0.7-0.4-0.6-0.6-1.3-1.2c-4.1-3.6-7.4-2.4-11.7,0
				C469.7,935.3,469.2,934.7,469.2,938z" clip-rule="evenodd"/><path fill="#fff" fill-rule="evenodd" d="M476.6,936.5c1.4-0.1,2.7,1.1,2.7,2.6c0.1,1.6-1,2.9-2.4,3c-1.4,0.1-2.7-1.1-2.7-2.6
					C474.1,937.9,475.2,936.6,476.6,936.5z" clip-rule="evenodd"/><path fill="#125aa3" fill-rule="evenodd" d="M476.9,942.2c1.4-0.1,2.5-1.4,2.4-3c-0.1-1.6-1.3-2.8-2.7-2.7c-0.6,0-1.1,0.3-1.6,0.7l0.2,0
					c0.5,0,0.9,0.4,0.9,0.9c0,0.5-0.3,0.9-0.8,1c-0.5,0-0.9-0.4-0.9-0.9V938c-0.2,0.4-0.3,0.9-0.3,1.5
					C474.3,941.1,475.5,942.3,476.9,942.2z" clip-rule="evenodd"/><path fill="#125aa3" fill-rule="evenodd" d="M458.1,938.7c-2.8-0.9-5.2-2-8.1-2.9c-4.2-1.3-5.2,1.8-8.1,2.3c0.6-0.4,0.5-0.6,1.2-1.4
				c3.7-4.1,7.1-3.4,11.6-1.5C457.3,936.2,457.8,935.5,458.1,938.7z" clip-rule="evenodd"/><path fill="#fff" fill-rule="evenodd" d="M450.6,938.3c-1.4,0.1-2.5,1.4-2.4,3c0.1,1.6,1.3,2.7,2.7,2.6c1.4-0.1,2.5-1.4,2.4-3
					C453.3,939.4,452.1,938.2,450.6,938.3z" clip-rule="evenodd"/><path fill="#125aa3" fill-rule="evenodd" d="M450.9,943.9c-1.4,0.1-2.7-1.1-2.7-2.7c-0.1-1.6,1-2.9,2.4-3c0.6,0,1.2,0.1,1.6,0.5l-0.2,0
					c-0.5,0-0.8,0.5-0.8,1c0,0.5,0.4,0.9,0.9,0.9c0.5,0,0.8-0.5,0.8-1l0-0.1c0.3,0.4,0.4,0.9,0.4,1.4
					C453.5,942.5,452.4,943.8,450.9,943.9z" clip-rule="evenodd"/><path fill="none" stroke="#fc9774" stroke-linecap="round" stroke-miterlimit="2.613" stroke-width=".14" d="M465.9,943.7c2.7,6.7,3.8,10.5,3.2,11.5c-0.8,1-1.8,1.4-2.8,1.4" clip-rule="evenodd"/><path fill="#fc9774" fill-rule="evenodd" d="M474,965.9c-5.1,5.2-10.2,5.1-15.1-0.3C465.4,966.3,470.5,966.2,474,965.9z" clip-rule="evenodd"/><path fill="#f58b67" fill-rule="evenodd" d="M628.5,1180c4.3,1.7,8.4,1.6,12.3-0.7C637.8,1183.6,631.5,1183.3,628.5,1180z" clip-rule="evenodd"/><path fill="#f57a44" fill-rule="evenodd" d="M978,1435.9H555c-3.7,0-8.1,3.3-6.7,6.7l11.8,28.9c1.4,3.4,3,6.7,6.7,6.7h389.4c3.7,0,4.5-3.7,6.7-6.7
			l21.7-28.9C986.9,1439.7,981.7,1435.9,978,1435.9z" clip-rule="evenodd"/><path fill="#fc9774" fill-rule="evenodd" d="M548.2,1440.5c-0.2,0.7-0.1,1.4,0.2,2.1l2.1,5.1l413.7,22.1l5.1-6.8L548.2,1440.5z" clip-rule="evenodd"/><path fill="#4f8ecc" fill-rule="evenodd" d="M903.6,1453.7c-21.7,0-39.3,17.6-39.3,39.3c0,21.7,17.6,39.3,39.3,39.3c21.7,0,39.3-17.6,39.3-39.3
				C942.9,1471.3,925.3,1453.7,903.6,1453.7z" clip-rule="evenodd"/><path fill="#a4d0fc" fill-rule="evenodd" d="M903.6,1468.2c-13.7,0-24.7,11.1-24.7,24.7c0,13.7,11.1,24.7,24.7,24.7c13.7,0,24.7-11.1,24.7-24.7
				C928.4,1479.3,917.3,1468.2,903.6,1468.2z" clip-rule="evenodd"/><path fill="#61a0e0" fill-rule="evenodd" d="M903.6,1484.2c-4.8,0-8.7,3.9-8.7,8.7c0,4.8,3.9,8.7,8.7,8.7c4.8,0,8.7-3.9,8.7-8.7
				C912.4,1488.2,908.5,1484.2,903.6,1484.2z" clip-rule="evenodd"/><path fill="#4f8ecc" fill-rule="evenodd" d="M636.4,1453.7c-21.7,0-39.3,17.6-39.3,39.3c0,21.7,17.6,39.3,39.3,39.3c21.7,0,39.3-17.6,39.3-39.3
				C675.7,1471.3,658.1,1453.7,636.4,1453.7z" clip-rule="evenodd"/><path fill="#a4d0fc" fill-rule="evenodd" d="M636.4,1468.2c-13.7,0-24.7,11.1-24.7,24.7c0,13.7,11.1,24.7,24.7,24.7c13.7,0,24.7-11.1,24.7-24.7
				C661.1,1479.3,650.1,1468.2,636.4,1468.2z" clip-rule="evenodd"/><path fill="#61a0e0" fill-rule="evenodd" d="M636.4,1484.2c-4.8,0-8.7,3.9-8.7,8.7c0,4.8,3.9,8.7,8.7,8.7c4.8,0,8.7-3.9,8.7-8.7
				C645.2,1488.2,641.2,1484.2,636.4,1484.2z" clip-rule="evenodd"/><path fill="#f57a44" fill-rule="evenodd" d="M569.8,1445.2c1.9-1.8,0.7-3.1-1.1-4.9l-175.2-216.6c-1.8-1.9-4.7-1.9-6.6-0.2c-1.9,1.8-1.9,4.7-0.2,6.6
			c11.7,12.3,151.2,195.6,176.7,215.3C566.2,1447.6,569.2,1445.9,569.8,1445.2z" clip-rule="evenodd"/><path fill="#ffb27d" fill-rule="evenodd" d="M425.5,1250.7c-7.9-7.7-8.9-6-9.9-7.1c-1.2-1.2-5.9-23.2-5.9-23.2s-14.4-64.7-15-68.3l13.2-66.6l-30.7-16.9
			c0,0-12.5,72.9-12.5,76.9c0,4,29.3,89.4,31.7,97c0,0-0.4,10.1-0.5,16.4c-0.1,6.3,2.6,12.4,2.8,14.2c0.1,0.4,27.1,17.2,32.5,14.6
			c1.6-0.7-14.5-29.6-11.9-30.1c1.2-0.2,4.5,0.4,5.1,1.2c0.7,0.9,1,3.1,1.7,4c0.7,0.9,2.2,1.4,3.3,0.7c1.1-0.7-0.5-6.2-0.5-6.2
			S427.8,1253,425.5,1250.7z" clip-rule="evenodd"/><path fill="#ed5d1f" fill-rule="evenodd" d="M367,1095.3l38.9,16.9c0,0,10.8-17.4,14-34.4c3.3-17.2-16.7-64.2-23.9-60.2
			C379.9,1026.8,367,1095.3,367,1095.3z" clip-rule="evenodd"/></g><g><path fill="#61a0e0" fill-rule="evenodd" d="M628.9,1073.6h191.6c5.6,0,2.3,17.6,2.7,23.1l24.3,330.2c0.7,9.6-9.9,19.2-20.5,19.2H635.4
			c-5.6,0-10.4-4.6-10.6-10.2l-13.6-339.1C610.9,1091.1,623.3,1073.6,628.9,1073.6z" clip-rule="evenodd"/><path fill="#61a0e0" fill-rule="evenodd" stroke="#4f8ecc" stroke-miterlimit="2.613" stroke-width=".216" d="M629,1073h191.6c4.6,0,3.9,9.6,3.4,17c-0.2,2.7-0.3,5.1-0.2,6.6l24.3,330.2c0,0.3,0,0.6,0,0.9
			c-0.5,3-0.7,8.3-4.8,12.1c-4.1,3.8-12,6-15.1,6.7c-0.4,0.1-0.8,0.1-1.2,0.1H635.4c-2.9,0-5.7-1.2-7.7-3.1c-2-1.9-3.3-4.6-3.4-7.5
			l-13.6-339.1c0-0.3,0-0.7,0.1-1.1c0.5-3.2,3.4-8.6,6.9-13.3h0c3.5-4.7,7.7-8.8,10.7-9.4C628.5,1073,628.8,1073,629,1073L629,1073z
			 M820.4,1074.1H628.8c-0.2,0-0.3,0-0.5,0c-2.6,0.5-6.5,4.4-9.9,8.9v0c-3.4,4.5-6.2,9.7-6.7,12.7c0,0.3-0.1,0.6-0.1,0.9l13.6,339.1
			c0.1,2.7,1.3,5.1,3.2,6.9c1.8,1.8,4.3,2.9,7,2.9h191.6c0.3,0,0.6,0,0.9-0.1c2.9-0.6,10.6-2.7,14.5-6.4c3.9-3.6,4-8.7,4.4-11.3
			c0-0.2,0-0.5,0-0.7l-24.3-330.2c-0.1-1.6,0-4,0.2-6.7C823.4,1083.1,824,1074.1,820.4,1074.1z" clip-rule="evenodd"/><path fill="#a4d0fc" fill-rule="evenodd" d="M632.3,1073.5h191.6c5.6,0,10.4,4.6,10.6,10.2l13.9,346c0.2,5.6-4.2,10.2-9.8,10.2H647.1
			c-5.6,0-10.4-4.6-10.6-10.2l-13.9-346C622.3,1078.1,626.7,1073.5,632.3,1073.5z" clip-rule="evenodd"/><path fill="#4f8ecc" fill-rule="evenodd" d="M632.4,1073H824c2.9,0,5.7,1.2,7.7,3.1c2,1.9,3.3,4.6,3.4,7.5l13.9,345.9c0,0.7,0,1.4-0.1,2
			c-0.3,2.2-1.3,4.1-2.8,5.7c-1.5,1.5-3.4,2.6-5.6,3c-0.6,0.1-1.3,0.2-2,0.2H647c-2.9,0-5.7-1.2-7.7-3.1c-2-1.9-3.3-4.6-3.4-7.5
			L622,1083.9c0-0.7,0-1.4,0.1-2c0.3-2.2,1.3-4.1,2.8-5.6c1.5-1.5,3.4-2.6,5.6-3C631.1,1073.1,631.7,1073,632.4,1073L632.4,1073z
			 M823.9,1074.1H632.2c-0.6,0-1.2,0.1-1.8,0.2c-1.9,0.4-3.6,1.3-4.9,2.6c-1.3,1.3-2.2,3-2.5,5c-0.1,0.6-0.1,1.2-0.1,1.8l13.9,345.9
			c0.1,2.7,1.3,5.1,3.2,6.9c1.8,1.8,4.3,2.9,7,2.9h191.6c0.6,0,1.2-0.1,1.8-0.2c1.9-0.4,3.6-1.3,4.9-2.6c1.3-1.3,2.2-3,2.5-5
			c0.1-0.6,0.1-1.2,0.1-1.8L834,1083.9c-0.1-2.7-1.3-5.1-3.2-6.9C829,1075.2,826.5,1074.1,823.9,1074.1z" clip-rule="evenodd"/><path fill="#eff9fc" fill-rule="evenodd" d="M645,1095.1h166c4.6,0,8.4,3.7,8.6,8.3l13.3,307.5c0.2,4.6-3.4,8.3-7.9,8.3H659c-4.6,0-8.4-3.7-8.6-8.3
			l-13.3-307.5C636.9,1098.8,640.4,1095.1,645,1095.1z" clip-rule="evenodd"/><path fill="#e1f4fa" fill-rule="evenodd" d="M804.8,1097.8c4.6,0,8.4,3.7,8.6,8.3l13.3,307.5c0.1,2.2-0.7,4.1-2,5.6h0.3c4.6,0,8.1-3.7,7.9-8.3
			l-13.3-307.5c-0.2-4.6-4.1-8.3-8.6-8.3H645c-2.4,0-4.5,1-6,2.7H804.8z" clip-rule="evenodd"/><path fill="#d2e5f7" fill-rule="evenodd" d="M727.8,1079.2c3.5,0,6.5,2.9,6.7,6.4c0.2,3.5-2.6,6.4-6.1,6.4c-3.5,0-6.5-2.9-6.7-6.4
			C721.6,1082.1,724.3,1079.2,727.8,1079.2z" clip-rule="evenodd"/></g><path fill="#61a0e0" fill-rule="evenodd" d="M751.8,1226.8l-2.7-6.6l-10,4.5l-10.1-6.1l2.5,6.4c-7.3,14.8-1.7,3.9,3.5,12.9c2.2,3.7-1.5,1,4.4,3.5
		c2.2,0.9,5.9,3.7,7.1,6c-10.2,5.9-23.6,10.9-38.2,7.3c-5.6-1.4-12-4.6-14.5-9.4c-1.6-3.2,0.5-2.1-1.2-1.2c-8.3,4.6,2,0.7-2.2,1.3
		c-2.5,0.4-4.2-1.6-7.4-2.4c3.9,3.4,15.7,9,22.2,12.5c7.2,3.9,21.1,1.8,31.3,1.5l6.6,9.3c-11,7.1-11-1.8-25.9,13.3
		c-3.1,3.2-16.4,14.5-20.1,17c14.6-8,16.5-21,40.1-10.3c-3.7,12.3-13.2,20.7-19.6,28.4c-10.9,13.3-10.2,7.8-18.4,28.1
		c8.5-15.1,39.1-55.7,56.4-52.2l8.6,14.6l0.3-31.6l4.7,6.9c9.5,0.4,13.9-4.1,22,0.7c3.6,2.1,12.3,8.2,15.7,9.1
		c-13-6-27-15.7-30.4-33.9l-0.6-1.6c1.4-2.2,21.3-8.4,25.2-9.8l-25.8,0.8l10-32.1c-1.7,3.8-11.3,26.8-13.5,27.6l-10.1-4.8l-0.2-12.5
		l-7.8,2.8L751.8,1226.8z" clip-rule="evenodd"/><path fill="#61a0e0" fill-rule="evenodd" d="M697.9,1188.2c7.8-8.4,9-10.7,17.4-11.3c0.1,7.7-2.6,14.3,0.3,20.7c2.3,5.2,1.5,3.1,1.5,8.8
		c0,8,0.1,5.3-2.4,7.4c4.6-0.2,5.1,2.5,7,5.3c3.3,4.8,0.4,3.4,5.6,2.5l0,3.5c3.7-0.2,4.2-1.4,5.6,2.2c-7.6,3.7-2.3,0.2-5.6,6.1
		l-2.6-1.6c-11-4.8-2.6-0.7-5.8-6.4l-4.7,3.3c-0.7-3-0.2-2-2.4-3.7c1.7-3.7,5.2-2.6,1.9-10.3L697.9,1188.2L697.9,1188.2z
		 M722.9,1216.4c-5.9-3.1-3.7-11.6-4.5-21.9c-0.7-8.9-3.8-25.9-3.2-35.3l0.2,14.2c-10.5,2.3-10.1,5-17.6,10.7
		c-0.1,0.1-0.5,0.3-0.6,0.4c-0.1,0.1-0.4,0.3-0.6,0.4c-5.5-6.7-3.8-8.4-8.9-12.8c3.2,10.2,20.8,35.5,24.7,46
		c-13.4-2.4-4.6,0.6-22.2-3.8c4.4,4,17.9,7.6,20.1,10.6c-2.5,1.2-6.8,0.8-9.7,0.6c-4.4-0.3-8.4-0.7-12.8-0.8
		c2.3,1.6,3.9,1.5,7.1,1.5c-1.6,2.5,1.5-0.2-4.8,2.7c4.9,0.3,10.7-0.7,15.9-1.1c0.1,0,3.5-0.2,3.5-0.2l7.9,2.7
		c-2,1.4-3.6,1.9-5.2,2.9c-4.2,2.9-1.2,1.4-3.2,5.3c-1.9,3.5-5.7,4.1-9.7,8.9c7.5-3.6,12.9-11.1,17.9-11.9c2.5-0.4-1.4,2,1.9-0.6
		c3-2.4-1.4-0.5,2.4-2.2l-2.4,33.1l7.3-29.6l1.9,3.4c2.3-4,0.4-5.1,4.5,0.7c1.7,2.4,3.7,4.6,4.2,6.2c-1.9-4.2-5-8.3-7.1-12.3
		l10.5,2.7c4.4,1.5,7,3.5,11.6,4.5c-4-5.2-6.4-5.4-12.3-10.2c4.8-0.1,8.5,0.7,11.9-1.1l-14.6,0c6.2-1.7,14.7-2.2,21.7-2.7l17.5-2
		c5.3-1.1,3.2,0.4,5-2.6l-42.9,2.5c1.5-0.3,3.1-1,5.2-1.7c0.7-0.3,2.3-0.8,3.2-1.2l-12.5,2.4c0.3-5.7-0.8-3.6,8.6-10.6l34.4-26.6
		c-4.6,2.1-8.4,5-12.2,7.6c-11,7.8-7.5,3.1-16.7,12.8c-2.4,2.5-16.4,9.4-19.3,10.4c2.4-26.7,0.1-14.3,6.9-40.6
		c4.3-16.5,4.3-23.6,13.5-35c-1.8,1.2,0,0.1-1.8,1.4l-2.4,1.7c-0.2,0.2-0.6,0.4-0.9,0.6l-0.6-7.8c-0.9,15-12.5,49.9-17.3,68.5
		C725.6,1210.6,725.2,1214.6,722.9,1216.4z" clip-rule="evenodd"/><g><polygon fill="#a4d0fc" fill-rule="evenodd" points="330.7 971 293 1000.9 309.1 1012.5" clip-rule="evenodd"/><polygon fill="#a4d0fc" fill-rule="evenodd" points="285 995.6 329.4 971.5 271.6 992.9" clip-rule="evenodd"/><polygon fill="#71afed" fill-rule="evenodd" points="285 995.6 291.8 1015 293 1000.9 330.7 971 329.4 971.5" clip-rule="evenodd"/><polygon fill="#4f8ecc" fill-rule="evenodd" points="291.8 1015 300.2 1006.1 293 1000.9" clip-rule="evenodd"/><path fill="#71afed" fill-rule="evenodd" d="M281.8,1007.3c1-0.6,1.8,0.9,0.9,1.5c-0.5,0.3-1,0.6-1.4,0.9c-1.1,0.6-1.8-0.9-0.9-1.4
			C280.8,1007.9,281.3,1007.6,281.8,1007.3L281.8,1007.3z M330.8,1096.2c-0.3,1.1-1.9,0.7-1.7-0.4c0.1-0.5,0.3-1.1,0.4-1.6
			c0.3-1.2,1.9-0.7,1.7,0.4C331.1,1095.1,330.9,1095.6,330.8,1096.2L330.8,1096.2z M331.9,1089.3c0,1-1.7,1.2-1.7-0.1
			c0-0.6,0-1.1,0-1.7c0-1.1,1.7-1.1,1.7,0C332,1088.1,332,1088.7,331.9,1089.3L331.9,1089.3z M331.5,1082.2c0.1,1.2-1.4,1.4-1.7,0.3
			c-0.1-0.5-0.2-1.1-0.4-1.6c-0.3-1.1,1.4-1.5,1.7-0.4C331.3,1081,331.4,1081.6,331.5,1082.2L331.5,1082.2z M329.3,1075.5
			c0.5,0.9-0.9,1.9-1.5,0.8c-0.2-0.5-0.5-1-0.8-1.5c-0.6-1,0.9-1.8,1.5-0.9C328.7,1074.4,329,1075,329.3,1075.5L329.3,1075.5z
			 M325.4,1069.6c0.7,0.9-0.6,2-1.3,1.1c-0.4-0.4-0.7-0.8-1.1-1.2c-0.8-0.8,0.4-2,1.2-1.2C324.6,1068.7,325,1069.1,325.4,1069.6
			L325.4,1069.6z M320.3,1064.8c0.9,0.8-0.2,2-1,1.4c-0.4-0.3-0.9-0.7-1.3-1c-0.9-0.7,0.1-2.1,1-1.4
			C319.3,1064.1,319.8,1064.4,320.3,1064.8L320.3,1064.8z M314.4,1061c1,0.6,0.1,2-0.8,1.5c-0.5-0.3-1-0.5-1.5-0.8
			c-1.1-0.6-0.1-2,0.8-1.5C313.3,1060.4,313.9,1060.7,314.4,1061L314.4,1061z M308,1058.1c1.1,0.4,0.5,2-0.6,1.6l-1.6-0.6
			c-1.1-0.4-0.4-2,0.6-1.6C306.9,1057.7,307.5,1057.9,308,1058.1L308,1058.1z M301.4,1056c1.1,0.3,0.7,1.9-0.4,1.7l-1.6-0.4
			c-1.2-0.3-0.7-1.9,0.4-1.7L301.4,1056L301.4,1056z M294.5,1054.7c1.1,0.1,0.9,1.8-0.2,1.7l-1.7-0.2c-1.2-0.1-0.9-1.8,0.2-1.7
			C293.4,1054.6,293.9,1054.7,294.5,1054.7L294.5,1054.7z M287.6,1054.2c1.1,0.1,1,1.7-0.1,1.7c-0.6,0-1.2-0.1-1.7-0.1
			c-1.2-0.2-0.9-1.8,0.1-1.7L287.6,1054.2L287.6,1054.2z M280.8,1053.6c1.1,0.1,0.9,1.8-0.2,1.7c-0.6-0.1-1.1-0.2-1.7-0.2
			c-1.1-0.1-0.9-1.8,0.3-1.7C279.7,1053.4,280.3,1053.5,280.8,1053.6L280.8,1053.6z M274.2,1052.4c1.1,0.3,0.7,1.9-0.4,1.7
			c-0.6-0.1-1.1-0.3-1.7-0.4c-1-0.3-0.7-1.9,0.5-1.6C273.1,1052.1,273.6,1052.2,274.2,1052.4L274.2,1052.4z M267.8,1050.3
			c1,0.4,0.4,2-0.7,1.6c-0.5-0.2-1.1-0.5-1.6-0.8c-1-0.6-0.1-2,0.8-1.5C266.8,1049.8,267.3,1050,267.8,1050.3L267.8,1050.3z
			 M262.4,1046.7c0.8,0.8-0.4,2-1.2,1.2c-0.4-0.4-0.8-0.9-1.2-1.4c-0.7-0.8,0.6-2,1.4-1C261.6,1045.9,262,1046.3,262.4,1046.7
			L262.4,1046.7z M259.3,1041.2c0.3,1-1.4,1.5-1.7,0.3c-0.1-0.6-0.2-1.2-0.2-1.8c0-1.2,1.7-1.1,1.7-0.1
			C259.1,1040.2,259.2,1040.7,259.3,1041.2L259.3,1041.2z M259.7,1034.8c-0.3,1-1.9,0.7-1.7-0.5c0.2-0.6,0.3-1.1,0.6-1.7
			c0.4-1.1,2-0.5,1.6,0.6C260,1033.8,259.8,1034.3,259.7,1034.8L259.7,1034.8z M262.4,1028.7c-0.6,1-2.1,0.1-1.5-0.9
			c0.2-0.5,0.6-1,0.9-1.5c0.5-0.9,2.1-0.2,1.4,0.9C263,1027.7,262.6,1028.3,262.4,1028.7L262.4,1028.7z M266.2,1023.2
			c-0.7,0.9-2-0.2-1.3-1.1c0.4-0.5,0.7-0.9,1.1-1.3c0.7-0.8,2,0.2,1.3,1.1C266.9,1022.3,266.6,1022.8,266.2,1023.2L266.2,1023.2z
			 M270.8,1018.2c-0.8,0.8-2-0.4-1.2-1.2c0.4-0.4,0.8-0.8,1.2-1.2c0.8-0.8,2,0.4,1.2,1.3C271.6,1017.4,271.2,1017.8,270.8,1018.2
			L270.8,1018.2z M275.8,1013.7c-0.8,0.7-2-0.6-1.1-1.3l1.4-1.1c0.8-0.7,2,0.6,1.1,1.4C276.7,1012.9,276.2,1013.3,275.8,1013.7z" clip-rule="evenodd"/></g><g><polygon fill="#a4d0fc" fill-rule="evenodd" points="1363.1 739 1426.4 765 1409.1 787.2" clip-rule="evenodd"/><polygon fill="#a4d0fc" fill-rule="evenodd" points="1435.4 754.5 1365.1 739.2 1452.6 745.6" clip-rule="evenodd"/><polygon fill="#71afed" fill-rule="evenodd" points="1435.4 754.5 1433.7 783.7 1426.4 765 1363.1 739 1365.1 739.2" clip-rule="evenodd"/><polygon fill="#4f8ecc" fill-rule="evenodd" points="1433.7 783.7 1418.7 774.8 1426.4 765" clip-rule="evenodd"/><path fill="#71afed" fill-rule="evenodd" d="M1450,781.5c-2.1-0.3-1.6-3.3,0.3-3l3,0.3c2,0.3,1.6,3.3-0.3,3L1450,781.5L1450,781.5z M1553.8,902.2
			c1.3,0,2,1.6,1.1,2.6c-0.2,0.3-0.7,0.5-1.1,0.5l-2,0c-2,0-2-3,0-3L1553.8,902.2L1553.8,902.2z M1542.8,901.9c1.8,0,2,3-0.2,3
			l-3.1-0.2c-2.2-0.3-1.6-3.3,0.2-3L1542.8,901.9L1542.8,901.9z M1530.9,900.8c1.9,0.2,1.6,3.3-0.5,3L1530.9,900.8L1530.9,900.8z
			 M1519.3,898.2c1.8,0.7,1.1,3.4-0.9,2.9c-1-0.3-2-0.7-3-1c-1.9-0.8-0.7-3.5,1.1-2.8C1517.4,897.6,1518.4,897.9,1519.3,898.2
			L1519.3,898.2z M1509,893c1.6,1.3-0.4,3.6-1.9,2.4c-0.9-0.7-1.6-1.4-2.4-2.3c-1.3-1.6,1.1-3.5,2.3-2
			C1507.6,891.8,1508.3,892.4,1509,893L1509,893z M1503.3,883.8c0.3,2.2-2.8,2.3-3,0.5c-0.2-1.1-0.3-2.1-0.4-3.2c0-2.1,3-2,3-0.1
			C1503,882,1503.1,882.9,1503.3,883.8L1503.3,883.8z M1504.1,872.5c-0.5,1.8-3.4,1.2-2.9-0.8c0.3-1,0.6-2,0.9-3
			c0.7-2,3.5-0.8,2.9,1C1504.6,870.6,1504.4,871.5,1504.1,872.5L1504.1,872.5z M1508.3,861.4c-0.7,1.8-3.6,0.7-2.8-1.3
			c0.4-0.9,0.9-1.9,1.3-2.8c1.1-1.9,3.6-0.2,2.7,1.3C1509.1,859.5,1508.7,860.5,1508.3,861.4L1508.3,861.4z M1513.7,850.6
			c-1.1,1.8-3.6,0.2-2.7-1.4l1.4-2.7c1.1-1.8,3.6-0.2,2.7,1.4C1514.7,848.8,1514.2,849.7,1513.7,850.6L1513.7,850.6z M1519.4,839.8
			c-1.1,1.9-3.6,0.2-2.7-1.4l1.3-2.7c1-1.8,3.5-0.5,2.7,1.3L1519.4,839.8L1519.4,839.8z M1524.3,828.5c-0.7,1.8-3.4,1.1-2.9-0.9
			c0.3-0.9,0.6-1.9,0.8-2.8c0.5-1.9,3.4-1.2,2.9,0.7C1524.9,826.5,1524.6,827.5,1524.3,828.5L1524.3,828.5z M1525.8,815.9
			c0.2,2-2.8,2.4-3,0.4c-0.1-0.9-0.3-1.9-0.5-2.8c-0.5-2,2.5-2.7,2.9-0.8C1525.5,813.7,1525.7,814.8,1525.8,815.9L1525.8,815.9z
			 M1521.2,804c1.2,1.7-1.3,3.4-2.5,1.8c-0.6-0.8-1.2-1.5-1.8-2.2c-1.4-1.7,1.1-3.5,2.3-2C1519.9,802.3,1520.5,803.1,1521.2,804
			L1521.2,804z M1512,795.3c1.6,1.1,0.1,3.6-1.7,2.5c-0.8-0.6-1.6-1.1-2.5-1.6c-1.7-1-0.2-3.6,1.6-2.6
			C1510.3,794.2,1511.1,794.7,1512,795.3L1512,795.3z M1501,789.5c1.9,0.8,0.6,3.6-1.2,2.8c-0.9-0.4-1.8-0.8-2.8-1.1
			c-1.9-0.7-0.8-3.5,1.1-2.8C1499.1,788.7,1500.1,789.1,1501,789.5L1501,789.5z M1489.4,785.4c1.8,0.5,1.2,3.4-0.8,2.9l-2.9-0.8
			c-1.9-0.5-1.2-3.4,0.8-2.9L1489.4,785.4L1489.4,785.4z M1477.5,782.5c2.1,0.5,1.2,3.4-0.6,3l-3-0.6c-1.9-0.5-1.5-3.2,0.6-3
			L1477.5,782.5L1477.5,782.5z M1465.4,780.4c1.9,0.2,1.6,3.3-0.5,3l-3-0.4c-1.9-0.2-1.6-3.3,0.4-3L1465.4,780.4z" clip-rule="evenodd"/></g><g><polygon fill="#a4d0fc" fill-rule="evenodd" points="820.7 733.9 757.1 784.3 784.2 803.8" clip-rule="evenodd"/><polygon fill="#a4d0fc" fill-rule="evenodd" points="743.5 775.3 818.5 734.7 721 770.8" clip-rule="evenodd"/><polygon fill="#71afed" fill-rule="evenodd" points="743.5 775.3 755 808 757.1 784.3 820.7 733.9 818.5 734.7" clip-rule="evenodd"/><polygon fill="#4f8ecc" fill-rule="evenodd" points="755 808 769.2 793 757.1 784.3" clip-rule="evenodd"/><path fill="#71afed" fill-rule="evenodd" d="M744.2,800.4c1.7-1,0.2-3.3-1.3-2.4c-0.8,0.4-1.7,0.9-2.5,1.3c-1.6,0.9-0.2,3.3,1.4,2.4
			C742.6,801.3,743.4,800.9,744.2,800.4L744.2,800.4z M527.2,840.5c-1.3-1.5-3.3,0.4-2.2,1.7l1.7,2.2c1.2,1.5,3.3-0.4,2.2-1.7
			L527.2,840.5L527.2,840.5z M534.1,848.8c-1.3-1.3-3.2,0.7-2,1.9c0.6,0.7,1.3,1.3,1.9,2c1.3,1.3,3.2-0.7,1.9-2
			C535.3,850.1,534.7,849.5,534.1,848.8L534.1,848.8z M542,856.2c-1.4-1.2-3.1,1-1.8,2.1c0.7,0.6,1.4,1.2,2.2,1.8
			c1.3,1.1,3.2-0.9,1.7-2.2C543.4,857.4,542.7,856.8,542,856.2L542,856.2z M550.7,862.7c-1.7-1-2.9,1.5-1.5,2.3
			c0.8,0.5,1.6,1,2.4,1.5c1.6,0.9,2.9-1.5,1.4-2.4C552.2,863.6,551.4,863.2,550.7,862.7L550.7,862.7z M560.1,868
			c-1.8-0.8-2.7,1.8-1.2,2.5c0.8,0.4,1.7,0.8,2.5,1.2c1.7,0.7,2.7-1.8,1.1-2.5C561.7,868.7,560.9,868.4,560.1,868L560.1,868z
			 M570.1,872.1c-1.6-0.6-2.7,1.9-0.9,2.6c0.9,0.3,1.8,0.6,2.7,0.9c1.9,0.5,2.4-2.2,0.8-2.6C571.8,872.6,571,872.4,570.1,872.1
			L570.1,872.1z M580.6,874.9c-1.6-0.4-2.4,2.2-0.6,2.7c0.9,0.2,1.8,0.4,2.7,0.5c2,0.3,2.1-2.5,0.5-2.7
			C582.3,875.3,581.5,875.1,580.6,874.9L580.6,874.9z M591.3,876.6c-1.7-0.2-2.2,2.5-0.3,2.7c0.9,0.1,1.9,0.2,2.8,0.2
			c1.6,0.2,2.2-2.5,0.2-2.7L591.3,876.6L591.3,876.6z M602.1,877.1c-1.8,0-1.8,2.8,0,2.8c0.9,0,1.9,0,2.8,0c1.7,0,1.8-2.7-0.1-2.7
			C603.9,877.1,603,877.1,602.1,877.1L602.1,877.1z M613,876.5c-1.8,0.2-1.4,3,0.3,2.7c0.9-0.1,1.8-0.2,2.8-0.3
			c1.8-0.2,1.5-3-0.4-2.7C614.8,876.3,613.9,876.4,613,876.5L613,876.5z M623.7,874.8c-1.9,0.5-1.1,3.1,0.6,2.7
			c0.9-0.2,1.8-0.4,2.7-0.6c1.8-0.4,1.1-3.1-0.6-2.7C625.4,874.4,624.6,874.6,623.7,874.8L623.7,874.8z M634.2,872
			c-1.8,0.7-0.7,3.2,0.9,2.6c0.9-0.3,1.8-0.6,2.6-0.9c1.7-0.7,0.7-3.2-0.9-2.6C635.9,871.5,635,871.8,634.2,872L634.2,872z
			 M644.3,868.1c-1.6,0.7-0.6,3.2,1.2,2.5c0.8-0.4,1.7-0.8,2.5-1.2c0.8-0.5,0.9-1.2,0.7-1.7l0.4,0.1c2,0.3,2.1-2.5,0.5-2.7
			c-0.9-0.2-1.7-0.4-2.6-0.6c-1.7-0.4-2.4,2.2-0.7,2.7L644.3,868.1L644.3,868.1z M653.8,863c-1.4,0.8-0.2,3.3,1.5,2.3
			c0.8-0.5,1.6-1,2.3-1.5c1.5-1.1-0.1-3.3-1.6-2.3C655.3,862.1,654.6,862.6,653.8,863L653.8,863z M662.4,856.6
			c-1.3,1.1,0.4,3.3,1.8,2c0.7-0.6,1.4-1.3,2.1-1.9c1.3-1.3-0.7-3.2-1.9-2C663.8,855.4,663.1,856,662.4,856.6L662.4,856.6z
			 M669.6,848.7c-1,1.4,1.2,3.1,2.3,1.6c0.5-0.8,1.1-1.6,1.5-2.4c0.9-1.6-1.5-2.9-2.4-1.4C670.5,847.2,670.1,848,669.6,848.7
			L669.6,848.7z M673.9,839.3c-0.4,1.7,2.2,2.4,2.7,0.6c0.2-1,0.4-1.9,0.5-2.9c0.2-1.7-2.5-2.1-2.7-0.3
			C674.2,837.6,674.1,838.4,673.9,839.3L673.9,839.3z M673.8,829.1c0.4,1.6,3.1,1.1,2.6-0.8c-0.3-0.9-0.6-1.9-0.9-2.8
			c-0.7-1.7-3.2-0.6-2.5,1.1C673.3,827.4,673.5,828.2,673.8,829.1L673.8,829.1z M669,819.8c1.2,1.5,3.2-0.2,2.2-1.6
			c-0.6-0.8-1.1-1.5-1.7-2.2c-1.2-1.4-3.3,0.4-2.1,1.7C667.9,818.3,668.4,819,669,819.8L669,819.8z M661.7,812
			c1.3,1.1,3.2-0.9,1.7-2.2c-0.8-0.6-1.5-1.1-2.3-1.7c-1.8-1-2.9,1.5-1.5,2.3C660.3,811,661,811.5,661.7,812L661.7,812z
			 M652.5,807.3c1.8,0.5,2.4-2.2,0.7-2.7c-0.9-0.3-1.9-0.4-2.9-0.6c-1.8-0.2-2.1,2.5-0.4,2.7C650.8,806.9,651.7,807,652.5,807.3
			L652.5,807.3z M642.3,807c1.9-0.5,1.1-3.1-0.6-2.7c-0.9,0.2-1.9,0.4-2.8,0.7c-1.6,0.6-1,3.1,0.9,2.6
			C640.6,807.4,641.4,807.1,642.3,807L642.3,807z M632.7,811c1.5-1.1-0.1-3.3-1.5-2.3c-0.8,0.5-1.6,1.1-2.3,1.7
			c-1.4,1.2,0.4,3.3,1.7,2.1C631.2,812,632,811.5,632.7,811L632.7,811z M625,818.2c1.1-1.3-0.9-3.2-2.2-1.7
			c-0.6,0.8-1.1,1.5-1.7,2.3c-1,1.7,1.5,2.9,2.3,1.5C623.9,819.6,624.5,818.9,625,818.2L625,818.2z M619.9,827.4
			c0.6-1.6-1.9-2.7-2.6-0.9c-0.3,0.9-0.6,1.8-0.8,2.7c-0.4,1.8,2.2,2.4,2.7,0.7C619.4,829.1,619.6,828.2,619.9,827.4L619.9,827.4z
			 M618.3,837.7c0-1.6-2.7-1.8-2.7,0.1c0,1,0.1,1.9,0.3,2.9c0.2,1.7,3,1.5,2.7-0.4C618.4,839.4,618.3,838.5,618.3,837.7L618.3,837.7
			z M621,847.6c-0.9-1.6-3.3-0.2-2.4,1.3c0.4,0.8,1,1.7,1.5,2.5c1.1,1.5,3.3-0.1,2.2-1.6C621.8,849.1,621.4,848.4,621,847.6
			L621,847.6z M627.7,855.5c-1.3-1.1-3.2,0.9-1.7,2.2c0.8,0.6,1.5,1.2,2.3,1.7c1.7,0.9,3-1.3,1.5-2.3
			C629.1,856.6,628.4,856.1,627.7,855.5L627.7,855.5z M636.8,860.9c-1.7-0.7-2.7,1.8-1.1,2.5c0.9,0.4,1.7,0.7,2.6,1.1
			c1.7,0.6,2.7-1.8,1-2.6C638.5,861.6,637.6,861.3,636.8,860.9L636.8,860.9z M657.5,866c0.9,0,1.8,0,2.7-0.1
			c1.6-0.2,2.2,2.5,0.2,2.7c-0.9,0.1-1.9,0.1-2.8,0.1C655.7,868.7,655.7,866,657.5,866L657.5,866z M668,864.6
			c-1.7,0.4-1.1,3.1,0.7,2.6c0.9-0.2,1.8-0.6,2.7-0.9c1.7-0.7,0.7-3.2-0.9-2.6C669.7,864.1,668.8,864.4,668,864.6L668,864.6z
			 M677.8,860.4c-1.5,0.9-0.2,3.3,1.4,2.4c0.8-0.5,1.6-1,2.4-1.5c1.4-0.8,0.2-3.3-1.5-2.3C679.3,859.5,678.5,860,677.8,860.4
			L677.8,860.4z M686.5,854.2c-1.4,1.1,0.4,3.3,1.8,2.1c0.7-0.6,1.4-1.2,2.1-1.8c1.3-1.1-0.3-3.3-1.8-2
			C687.9,853,687.2,853.6,686.5,854.2L686.5,854.2z M694.4,846.7c-1.2,1.2,0.6,3.2,2,1.9l1.9-2c1.3-1.5-1-3.1-2-1.9
			C695.7,845.4,695,846.1,694.4,846.7L694.4,846.7z M701.7,838.6c-1.2,1.4,1,3.1,2.1,1.8l1.8-2.1c1.2-1.4-0.9-3.2-2.1-1.8
			L701.7,838.6L701.7,838.6z M708.7,830.2c-1.1,1.4,0.9,3.2,2.1,1.7l1.7-2.1c1.2-1.4-0.9-3.2-2.1-1.8L708.7,830.2L708.7,830.2z
			 M715.8,821.7c-1.2,1.4,1,3.1,2.1,1.8l1.8-2.1c1.2-1.5-1-3.1-2.1-1.8L715.8,821.7L715.8,821.7z M723.2,813.5
			c-1.2,1.2,0.7,3.2,2,1.9l1.9-1.9c1.3-1.3-0.7-3.2-1.9-2L723.2,813.5L723.2,813.5z M731.3,805.8c-1.4,1.2,0.4,3.3,1.8,2.1
			c0.7-0.6,1.4-1.2,2.1-1.7c1.5-1.2-0.4-3.3-1.7-2.2C732.7,804.6,732,805.2,731.3,805.8z" clip-rule="evenodd"/></g><path fill="#fff" fill-rule="evenodd" d="M747.4,908.6c-2.3,31.4-6.9,35.7-36.8,38.1c29.9,2.4,34.6,6.7,36.8,38.1c2.3-31.4,6.9-35.7,36.8-38.1
		C754.3,944.4,749.7,940,747.4,908.6z" clip-rule="evenodd"/></svg>